<svg width="1000" height="800" viewBox="0 0 1000 800" fill="none" xmlns="http://www.w3.org/2000/svg">
<path d="M187.333 233.333H372.5C431.833 233.333 446.667 248.166 446.667 307.333V412.833C446.667 472.166 431.833 486.833 372.667 486.833H187.333C128.167 487 113.333 472.166 113.333 413V307.333C113.333 248.166 128.167 233.333 187.333 233.333Z" stroke="#8B0C8B" stroke-width="18" stroke-linecap="round" stroke-linejoin="round"/>
<path d="M280 487V566.667" stroke="#8B0C8B" stroke-width="18" stroke-linecap="round" stroke-linejoin="round"/>
<path d="M113.333 416.667H446.667" stroke="#8B0C8B" stroke-width="18" stroke-linecap="round" stroke-linejoin="round"/>
<path d="M205 566.667H355" stroke="#8B0C8B" stroke-width="18" stroke-linecap="round" stroke-linejoin="round"/>
<path d="M530.853 369.92C529.093 369.92 527.813 369.44 527.013 368.48C526.213 367.547 525.519 366.16 524.933 364.32C524.666 363.227 524.426 362.04 524.213 360.76C524.026 359.453 523.866 358.093 523.733 356.68C523.626 355.24 523.533 353.773 523.453 352.28C523.399 350.76 523.386 349.24 523.413 347.72C523.439 345.933 523.506 344.12 523.613 342.28C523.746 340.413 523.919 338.613 524.133 336.88C524.346 335.147 524.599 333.587 524.893 332.2C525.186 330.787 525.519 329.64 525.893 328.76C526.693 326.707 527.746 325.093 529.053 323.92C530.359 322.72 531.826 321.867 533.453 321.36C535.079 320.853 536.759 320.6 538.493 320.6C540.386 320.6 542.039 320.96 543.453 321.68C544.893 322.4 546.039 323.467 546.893 324.88C547.346 325.653 547.799 326.613 548.253 327.76C548.706 328.88 549.133 330.093 549.533 331.4C549.959 332.707 550.346 334.027 550.693 335.36C551.039 336.667 551.346 337.907 551.613 339.08C551.906 340.493 552.239 341.733 552.613 342.8C553.013 343.84 553.586 344.36 554.333 344.36C555.106 344.36 555.693 343.893 556.093 342.96C556.493 342.027 556.813 340.987 557.053 339.84C557.293 338.587 557.559 337.28 557.853 335.92C558.146 334.56 558.466 333.213 558.813 331.88C559.159 330.52 559.519 329.253 559.893 328.08C560.293 326.88 560.706 325.813 561.133 324.88C561.959 323.467 563.039 322.387 564.373 321.64C565.733 320.893 567.519 320.52 569.733 320.52C571.439 320.52 572.999 320.813 574.413 321.4C575.826 321.96 577.079 322.773 578.173 323.84C579.266 324.907 580.199 326.2 580.973 327.72C581.693 329.053 582.306 330.733 582.813 332.76C583.319 334.787 583.706 337.04 583.973 339.52C584.239 341.973 584.386 344.533 584.413 347.2C584.439 348.613 584.439 350.027 584.413 351.44C584.413 352.853 584.373 354.253 584.293 355.64C584.239 357.027 584.133 358.387 583.973 359.72C583.839 361.053 583.666 362.347 583.453 363.6C582.946 365.36 582.173 366.64 581.133 367.44C580.119 368.213 578.706 368.6 576.893 368.6C575.746 368.6 574.853 368.347 574.213 367.84C573.573 367.307 573.146 366.587 572.933 365.68C572.853 364.933 572.773 364.12 572.693 363.24C572.639 362.333 572.573 361.413 572.493 360.48C572.413 359.52 572.333 358.56 572.253 357.6C572.173 356.64 572.106 355.693 572.053 354.76C571.973 352.973 571.866 351.227 571.733 349.52C571.599 347.813 571.439 346.28 571.253 344.92C571.093 343.56 570.893 342.52 570.653 341.8C570.253 340.413 569.773 339.36 569.213 338.64C568.679 337.92 567.906 337.56 566.893 337.56C565.959 337.56 565.159 337.947 564.493 338.72C563.853 339.467 563.359 340.56 563.013 342C562.879 342.533 562.719 343.227 562.533 344.08C562.373 344.907 562.199 345.827 562.013 346.84C561.853 347.853 561.666 348.893 561.453 349.96C561.266 351.027 561.079 352.08 560.893 353.12C560.706 354.16 560.533 355.12 560.373 356C559.919 357.92 559.213 359.387 558.253 360.4C557.293 361.387 555.919 361.88 554.133 361.88C552.106 361.88 550.639 361.253 549.733 360C548.826 358.747 547.999 357.027 547.253 354.84C547.066 354.173 546.853 353.36 546.613 352.4C546.399 351.413 546.159 350.36 545.893 349.24C545.653 348.093 545.399 346.96 545.133 345.84C544.893 344.693 544.653 343.64 544.413 342.68C544.199 341.72 543.999 340.92 543.813 340.28C543.466 339 543.026 338.053 542.493 337.44C541.959 336.827 541.306 336.52 540.533 336.52C539.466 336.52 538.693 336.947 538.213 337.8C537.733 338.653 537.346 339.987 537.053 341.8C536.973 342.387 536.893 343.133 536.813 344.04C536.733 344.92 536.666 345.907 536.613 347C536.559 348.093 536.519 349.267 536.493 350.52C536.466 351.773 536.453 353.08 536.453 354.44C536.453 355.8 536.439 357.093 536.413 358.32C536.386 359.547 536.346 360.693 536.293 361.76C536.239 362.8 536.159 363.733 536.053 364.56C535.973 365.36 535.853 366.04 535.693 366.6C535.293 367.613 534.693 368.413 533.893 369C533.119 369.613 532.106 369.92 530.853 369.92ZM612.551 368.8C610.684 368.8 609.351 368.4 608.551 367.6C607.751 366.773 607.178 365.507 606.831 363.8C606.778 363.267 606.711 362.667 606.631 362C606.578 361.307 606.524 360.587 606.471 359.84C606.444 359.067 606.404 358.293 606.351 357.52C606.298 356.72 606.258 355.96 606.231 355.24C606.098 353.507 605.884 352 605.591 350.72C605.324 349.413 604.644 348.4 603.551 347.68C602.271 346.88 601.031 346.12 599.831 345.4C598.658 344.653 597.551 343.853 596.511 343C595.311 342.04 594.244 340.92 593.311 339.64C592.378 338.333 591.591 336.947 590.951 335.48C590.311 334.013 589.818 332.52 589.471 331C589.151 329.453 588.991 327.973 588.991 326.56C588.991 325.147 589.284 323.947 589.871 322.96C590.484 321.973 591.298 321.227 592.311 320.72C593.351 320.187 594.511 319.92 595.791 319.92C596.831 319.92 597.764 320.28 598.591 321C599.418 321.693 600.178 322.907 600.871 324.64C601.271 325.787 601.724 326.973 602.231 328.2C602.764 329.4 603.338 330.56 603.951 331.68C604.698 333.093 605.524 334.4 606.431 335.6C607.364 336.773 608.378 337.707 609.471 338.4C610.591 339.093 611.791 339.44 613.071 339.44C614.271 339.44 615.444 339.08 616.591 338.36C617.738 337.64 618.831 336.72 619.871 335.6C621.204 334.16 622.418 332.533 623.511 330.72C624.604 328.88 625.498 327.213 626.191 325.72C627.098 324.013 627.951 322.76 628.751 321.96C629.578 321.133 630.498 320.72 631.511 320.72C632.738 320.72 633.831 321.04 634.791 321.68C635.778 322.293 636.551 323.12 637.111 324.16C637.671 325.173 637.951 326.307 637.951 327.56C637.951 328.707 637.778 329.947 637.431 331.28C637.111 332.587 636.631 333.92 635.991 335.28C635.378 336.64 634.644 337.96 633.791 339.24C632.938 340.52 631.978 341.68 630.911 342.72C629.551 344.08 628.191 345.227 626.831 346.16C625.498 347.093 624.178 347.933 622.871 348.68C622.018 349.187 621.351 349.653 620.871 350.08C620.418 350.48 620.058 350.92 619.791 351.4C619.551 351.88 619.324 352.493 619.111 353.24C619.004 353.72 618.898 354.347 618.791 355.12C618.711 355.893 618.618 356.747 618.511 357.68C618.404 358.587 618.298 359.533 618.191 360.52C618.111 361.48 618.004 362.413 617.871 363.32C617.658 365.027 617.098 366.373 616.191 367.36C615.284 368.32 614.071 368.8 612.551 368.8ZM685.657 370.32C682.323 370.32 679.457 369.72 677.057 368.52C674.683 367.32 672.803 365.493 671.417 363.04C670.03 360.56 669.11 357.427 668.657 353.64C668.577 352.76 668.497 351.853 668.417 350.92C668.363 349.987 668.31 349.013 668.257 348C668.23 346.987 668.203 345.947 668.177 344.88C668.177 343.787 668.177 342.667 668.177 341.52C668.177 336.88 668.657 333.04 669.617 330C670.577 326.96 672.03 324.573 673.977 322.84C675.923 321.107 678.39 319.88 681.377 319.16C684.363 318.44 687.883 318.08 691.937 318.08C693.963 318.08 695.883 318.173 697.697 318.36C699.51 318.547 701.11 318.827 702.497 319.2C703.91 319.573 705.017 320.067 705.817 320.68C706.643 321.267 707.057 321.973 707.057 322.8C707.057 323.733 706.79 324.467 706.257 325C705.723 325.533 705.057 325.893 704.257 326.08C703.403 326.213 702.31 326.28 700.977 326.28C699.643 326.28 698.203 326.253 696.657 326.2C695.11 326.147 693.563 326.133 692.017 326.16C689.99 326.16 688.283 326.32 686.897 326.64C685.51 326.933 684.403 327.44 683.577 328.16C682.777 328.853 682.19 329.787 681.817 330.96C681.47 332.133 681.297 333.587 681.297 335.32C681.297 336.253 681.417 336.973 681.657 337.48C681.923 337.96 682.497 338.293 683.377 338.48C684.283 338.667 685.71 338.76 687.657 338.76C688.217 338.76 688.883 338.76 689.657 338.76C690.43 338.733 691.217 338.707 692.017 338.68C692.843 338.653 693.617 338.64 694.337 338.64C695.083 338.613 695.697 338.6 696.177 338.6C698.177 338.6 699.59 338.92 700.417 339.56C701.243 340.173 701.657 341.067 701.657 342.24C701.657 343.973 701.137 345.16 700.097 345.8C699.057 346.44 697.737 346.76 696.137 346.76C695.497 346.76 694.79 346.76 694.017 346.76C693.27 346.76 692.497 346.76 691.697 346.76C690.923 346.76 690.163 346.76 689.417 346.76C688.697 346.76 688.043 346.76 687.457 346.76C685.43 346.76 683.91 346.84 682.897 347C681.91 347.16 681.257 347.467 680.937 347.92C680.643 348.373 680.497 349.053 680.497 349.96C680.497 351.427 680.563 352.733 680.697 353.88C680.857 355.027 681.123 356.027 681.497 356.88C681.87 357.733 682.39 358.44 683.057 359C683.723 359.56 684.577 359.973 685.617 360.24C686.657 360.507 687.91 360.64 689.377 360.64C691.137 360.64 692.87 360.6 694.577 360.52C696.31 360.413 697.883 360.307 699.297 360.2C700.737 360.093 701.87 360.04 702.697 360.04C704.11 360.04 705.137 360.36 705.777 361C706.443 361.613 706.777 362.507 706.777 363.68C706.777 364.987 706.11 366.067 704.777 366.92C703.47 367.773 701.75 368.44 699.617 368.92C697.51 369.427 695.217 369.787 692.737 370C690.283 370.213 687.923 370.32 685.657 370.32ZM717.598 369.32C716.424 369.32 715.371 369.093 714.438 368.64C713.531 368.213 712.811 367.587 712.278 366.76C711.771 365.933 711.518 364.947 711.518 363.8C711.518 362.6 711.718 361.573 712.118 360.72C712.518 359.84 713.091 359.027 713.838 358.28C714.318 357.747 715.011 357.027 715.918 356.12C716.824 355.213 717.838 354.227 718.958 353.16C720.078 352.093 721.211 351.04 722.358 350C723.504 348.96 724.558 348.053 725.518 347.28C726.851 346.4 727.891 345.627 728.638 344.96C729.384 344.267 729.758 343.667 729.758 343.16C729.758 342.68 729.544 342.187 729.118 341.68C728.691 341.173 727.878 340.573 726.678 339.88C725.851 339.293 724.918 338.613 723.878 337.84C722.838 337.067 721.771 336.267 720.678 335.44C719.611 334.613 718.584 333.813 717.598 333.04C716.611 332.267 715.744 331.613 714.998 331.08C714.144 330.493 713.464 329.747 712.958 328.84C712.478 327.933 712.238 326.92 712.238 325.8C712.238 324.36 712.558 323.2 713.198 322.32C713.838 321.44 714.624 320.813 715.558 320.44C716.518 320.04 717.464 319.84 718.398 319.84C719.731 319.84 720.891 320.053 721.878 320.48C722.864 320.907 723.864 321.613 724.878 322.6C725.838 323.507 726.864 324.56 727.958 325.76C729.078 326.933 730.198 328.187 731.318 329.52C732.464 330.853 733.544 332.187 734.558 333.52C735.331 334.64 735.984 335.48 736.518 336.04C737.051 336.6 737.584 336.88 738.118 336.88C738.571 336.88 738.998 336.68 739.398 336.28C739.824 335.88 740.264 335.373 740.718 334.76C741.224 334.093 741.811 333.293 742.478 332.36C743.171 331.4 743.891 330.387 744.638 329.32C745.411 328.253 746.158 327.213 746.878 326.2C747.598 325.187 748.264 324.28 748.878 323.48C749.918 322.093 751.024 321.093 752.198 320.48C753.371 319.84 754.598 319.52 755.878 319.52C757.904 319.52 759.331 320 760.158 320.96C760.984 321.893 761.398 323.08 761.398 324.52C761.398 325.347 761.171 326.267 760.718 327.28C760.291 328.293 759.584 329.347 758.598 330.44C757.824 331.453 756.904 332.56 755.838 333.76C754.771 334.933 753.678 336.093 752.558 337.24C751.464 338.36 750.411 339.333 749.398 340.16C748.224 341.04 747.384 341.733 746.878 342.24C746.398 342.747 746.158 343.16 746.158 343.48C746.158 343.773 746.358 344.12 746.758 344.52C747.158 344.893 747.704 345.333 748.398 345.84C750.744 347.653 752.798 349.387 754.558 351.04C756.318 352.693 757.851 354.267 759.158 355.76C760.464 357.227 761.598 358.64 762.558 360C762.984 360.56 763.291 361.173 763.478 361.84C763.664 362.507 763.758 363.133 763.758 363.72C763.758 364.68 763.451 365.547 762.838 366.32C762.224 367.093 761.438 367.693 760.478 368.12C759.544 368.573 758.558 368.8 757.518 368.8C756.291 368.8 755.224 368.613 754.318 368.24C753.438 367.867 752.664 367.333 751.998 366.64C751.384 365.973 750.638 365.08 749.758 363.96C748.904 362.813 748.011 361.627 747.078 360.4C746.171 359.147 745.291 357.96 744.438 356.84C743.611 355.693 742.904 354.773 742.318 354.08C741.464 352.907 740.731 352.093 740.118 351.64C739.531 351.16 738.971 350.92 738.438 350.92C737.958 350.92 737.384 351.2 736.718 351.76C736.078 352.32 735.264 353.293 734.278 354.68C733.158 356.067 732.144 357.307 731.238 358.4C730.358 359.493 729.504 360.52 728.678 361.48C727.878 362.44 727.038 363.413 726.158 364.4C725.278 365.36 724.278 366.427 723.158 367.6C722.544 368.08 721.811 368.48 720.958 368.8C720.131 369.147 719.011 369.32 717.598 369.32ZM790.653 369.96C788.866 369.96 787.506 369.427 786.573 368.36C785.666 367.32 785.106 365.707 784.893 363.52C784.839 362.667 784.799 361.573 784.773 360.24C784.746 358.907 784.733 357.413 784.733 355.76C784.733 354.107 784.746 352.387 784.773 350.6C784.799 348.787 784.813 347 784.813 345.24C784.839 343.453 784.853 341.773 784.853 340.2C784.879 338.627 784.893 337.227 784.893 336C784.893 334.293 784.679 333.12 784.253 332.48C783.826 331.84 782.866 331.52 781.373 331.52C779.799 331.52 778.213 331.64 776.613 331.88C775.039 332.12 773.466 332.24 771.893 332.24C770.959 332.24 770.119 332.067 769.373 331.72C768.626 331.347 768.039 330.8 767.613 330.08C767.213 329.36 767.013 328.493 767.013 327.48C767.013 326.307 767.546 325.293 768.613 324.44C769.679 323.587 771.133 322.88 772.973 322.32C774.839 321.733 776.999 321.267 779.453 320.92C781.906 320.573 784.533 320.333 787.333 320.2C790.133 320.04 792.973 319.96 795.853 319.96C797.933 319.96 799.999 320 802.053 320.08C804.133 320.16 806.079 320.333 807.893 320.6C809.733 320.84 811.346 321.213 812.733 321.72C814.119 322.227 815.213 322.907 816.013 323.76C816.839 324.587 817.253 325.627 817.253 326.88C817.253 328.027 817.026 329 816.573 329.8C816.146 330.573 815.519 331.16 814.693 331.56C813.866 331.96 812.853 332.16 811.653 332.16C810.213 332.16 809.053 332.12 808.173 332.04C807.293 331.96 806.226 331.92 804.973 331.92C803.186 331.92 801.866 332.08 801.013 332.4C800.186 332.72 799.653 333.32 799.413 334.2C799.173 335.08 799.026 336.387 798.973 338.12C798.919 339.187 798.853 340.333 798.773 341.56C798.719 342.787 798.639 344.067 798.533 345.4C798.453 346.733 798.346 348.08 798.213 349.44C798.106 350.8 797.973 352.147 797.813 353.48C797.679 354.787 797.546 356.067 797.413 357.32C797.279 358.547 797.133 359.707 796.973 360.8C796.813 361.893 796.653 362.88 796.493 363.76C796.066 365.28 795.626 366.493 795.173 367.4C794.719 368.307 794.146 368.96 793.453 369.36C792.759 369.76 791.826 369.96 790.653 369.96ZM829.435 369.68C827.755 369.68 826.342 369.213 825.195 368.28C824.049 367.347 823.169 365.947 822.555 364.08C822.342 363.333 822.142 362.4 821.955 361.28C821.795 360.133 821.649 358.88 821.515 357.52C821.409 356.133 821.315 354.72 821.235 353.28C821.155 351.84 821.089 350.44 821.035 349.08C821.009 347.693 820.995 346.44 820.995 345.32C820.995 341.373 821.262 337.907 821.795 334.92C822.355 331.907 823.195 329.347 824.315 327.24C825.435 325.107 826.849 323.387 828.555 322.08C830.262 320.747 832.289 319.773 834.635 319.16C836.982 318.547 839.649 318.24 842.635 318.24C845.435 318.24 848.102 318.547 850.635 319.16C853.195 319.773 855.475 320.707 857.475 321.96C859.502 323.187 861.089 324.72 862.235 326.56C863.409 328.373 863.995 330.48 863.995 332.88C863.995 335.013 863.555 336.8 862.675 338.24C861.795 339.68 860.649 340.853 859.235 341.76C857.849 342.64 856.342 343.32 854.715 343.8C853.089 344.28 851.529 344.653 850.035 344.92C849.209 345.053 848.609 345.213 848.235 345.4C847.862 345.587 847.675 345.853 847.675 346.2C847.675 346.44 847.875 346.773 848.275 347.2C848.702 347.627 849.249 348.147 849.915 348.76C850.609 349.347 851.355 350.013 852.155 350.76C852.982 351.48 853.769 352.253 854.515 353.08C855.209 353.773 855.982 354.573 856.835 355.48C857.689 356.387 858.555 357.32 859.435 358.28C860.315 359.213 861.115 360.12 861.835 361C862.582 361.853 863.182 362.613 863.635 363.28C864.089 363.92 864.315 364.36 864.315 364.6C864.315 365.533 864.022 366.32 863.435 366.96C862.875 367.6 862.142 368.08 861.235 368.4C860.329 368.72 859.355 368.88 858.315 368.88C857.329 368.88 856.302 368.64 855.235 368.16C854.169 367.707 853.075 367.053 851.955 366.2C850.835 365.347 849.715 364.333 848.595 363.16C847.502 361.987 846.409 360.707 845.315 359.32C843.795 357.507 842.395 355.907 841.115 354.52C839.862 353.133 838.795 352.04 837.915 351.24C837.035 350.44 836.422 350.04 836.075 350.04C835.835 350.04 835.635 350.147 835.475 350.36C835.342 350.573 835.249 350.933 835.195 351.44C835.142 351.92 835.102 352.587 835.075 353.44C835.075 354.267 835.075 355.32 835.075 356.6C835.075 357.053 835.075 357.613 835.075 358.28C835.102 358.92 835.115 359.6 835.115 360.32C835.142 361.04 835.142 361.747 835.115 362.44C835.115 363.133 835.102 363.76 835.075 364.32C835.075 364.853 835.049 365.253 834.995 365.52C834.729 367.067 834.075 368.147 833.035 368.76C832.022 369.373 830.822 369.68 829.435 369.68ZM839.155 341.16C839.982 341.16 840.955 341.08 842.075 340.92C843.222 340.733 844.395 340.453 845.595 340.08C846.822 339.68 847.955 339.16 848.995 338.52C850.035 337.88 850.875 337.08 851.515 336.12C852.182 335.16 852.515 334.04 852.515 332.76C852.515 331.48 852.209 330.387 851.595 329.48C850.982 328.547 850.155 327.8 849.115 327.24C848.075 326.653 846.929 326.227 845.675 325.96C844.422 325.693 843.155 325.56 841.875 325.56C840.515 325.56 839.382 325.747 838.475 326.12C837.569 326.493 836.835 327.067 836.275 327.84C835.742 328.587 835.342 329.547 835.075 330.72C834.889 331.387 834.742 332.08 834.635 332.8C834.529 333.493 834.449 334.187 834.395 334.88C834.369 335.573 834.355 336.267 834.355 336.96C834.355 338 834.489 338.827 834.755 339.44C835.049 340.053 835.542 340.493 836.235 340.76C836.955 341.027 837.929 341.16 839.155 341.16ZM918.958 369.6C917.678 369.6 916.545 369.32 915.558 368.76C914.598 368.227 913.758 367.373 913.038 366.2C912.772 365.56 912.505 364.827 912.238 364C911.972 363.173 911.705 362.333 911.438 361.48C911.172 360.6 910.892 359.76 910.598 358.96C910.305 358.133 909.998 357.413 909.678 356.8C909.252 355.973 908.758 355.36 908.198 354.96C907.638 354.533 906.865 354.24 905.878 354.08C905.398 354 904.692 353.92 903.758 353.84C902.852 353.76 901.838 353.693 900.718 353.64C899.625 353.587 898.585 353.56 897.598 353.56C896.105 353.56 894.585 353.6 893.038 353.68C891.518 353.76 890.198 353.853 889.078 353.96C888.092 354.093 887.332 354.333 886.798 354.68C886.265 355 885.825 355.52 885.478 356.24C885.132 356.933 884.772 357.773 884.398 358.76C884.052 359.72 883.692 360.733 883.318 361.8C882.945 362.867 882.558 363.893 882.158 364.88C881.545 366.133 880.772 367.107 879.838 367.8C878.905 368.493 877.598 368.84 875.918 368.84C874.558 368.84 873.425 368.627 872.518 368.2C871.612 367.773 870.932 367.08 870.478 366.12C870.025 365.16 869.798 363.867 869.798 362.24C869.798 360.933 869.972 359.427 870.318 357.72C870.692 355.987 871.172 354.16 871.758 352.24C872.372 350.293 873.038 348.347 873.758 346.4C874.505 344.427 875.265 342.547 876.038 340.76C876.812 338.947 877.545 337.32 878.238 335.88C878.932 334.413 879.532 333.253 880.038 332.4C880.945 330.827 881.985 329.293 883.158 327.8C884.358 326.28 885.692 324.92 887.158 323.72C888.652 322.493 890.292 321.52 892.078 320.8C893.892 320.08 895.878 319.72 898.038 319.72C901.425 319.72 904.518 320.68 907.318 322.6C910.118 324.493 912.638 327.04 914.878 330.24C915.732 331.387 916.572 332.827 917.398 334.56C918.252 336.267 919.078 338.16 919.878 340.24C920.678 342.32 921.412 344.467 922.078 346.68C922.745 348.893 923.332 351.08 923.838 353.24C924.372 355.373 924.772 357.373 925.038 359.24C925.332 361.08 925.478 362.68 925.478 364.04C925.478 366.067 924.892 367.493 923.718 368.32C922.545 369.173 920.958 369.6 918.958 369.6ZM906.518 345.8C907.078 345.667 907.452 345.413 907.638 345.04C907.825 344.667 907.918 344.093 907.918 343.32C907.918 342.573 907.785 341.667 907.518 340.6C907.278 339.507 906.945 338.373 906.518 337.2C906.092 336 905.598 334.893 905.038 333.88C904.238 332.387 903.305 331.147 902.238 330.16C901.172 329.147 900.012 328.64 898.758 328.64C897.345 328.64 896.012 329.2 894.758 330.32C893.505 331.44 892.398 332.827 891.438 334.48C891.065 335.12 890.678 335.867 890.278 336.72C889.878 337.547 889.505 338.4 889.158 339.28C888.812 340.16 888.532 341 888.318 341.8C888.105 342.573 887.998 343.24 887.998 343.8C887.998 344.627 888.332 345.213 888.998 345.56C889.692 345.88 890.705 346.04 892.038 346.04C894.545 346.04 896.718 346.04 898.558 346.04C900.398 346.04 901.972 346.027 903.278 346C904.585 345.947 905.665 345.88 906.518 345.8ZM595.678 465.96C593.304 465.96 590.984 465.787 588.718 465.44C586.478 465.093 584.451 464.6 582.638 463.96C580.824 463.293 579.384 462.48 578.318 461.52C577.278 460.56 576.758 459.467 576.758 458.24C576.758 457.093 577.011 456.2 577.518 455.56C578.051 454.893 578.744 454.44 579.598 454.2C580.478 453.933 581.424 453.8 582.438 453.8C582.891 453.8 583.571 453.973 584.478 454.32C585.384 454.64 586.491 454.973 587.798 455.32C589.104 455.667 590.584 455.84 592.238 455.84C594.131 455.84 595.784 455.773 597.198 455.64C598.611 455.48 599.784 455.2 600.718 454.8C601.678 454.4 602.398 453.84 602.878 453.12C603.358 452.4 603.598 451.467 603.598 450.32C603.598 449.28 603.318 448.36 602.758 447.56C602.224 446.76 601.464 446.027 600.478 445.36C599.518 444.693 598.371 444.067 597.038 443.48C595.731 442.893 594.304 442.293 592.758 441.68C590.731 440.907 588.838 440.08 587.078 439.2C585.344 438.293 583.811 437.28 582.478 436.16C581.144 435.04 580.104 433.787 579.358 432.4C578.611 430.987 578.238 429.387 578.238 427.6C578.238 425.52 578.731 423.72 579.718 422.2C580.704 420.68 582.024 419.4 583.678 418.36C585.331 417.293 587.171 416.453 589.198 415.84C591.251 415.2 593.358 414.747 595.518 414.48C597.678 414.187 599.731 414.04 601.678 414.04C603.864 414.04 605.931 414.2 607.878 414.52C609.824 414.813 611.544 415.253 613.038 415.84C614.558 416.4 615.744 417.08 616.598 417.88C617.451 418.68 617.878 419.587 617.878 420.6C617.878 421.613 617.638 422.44 617.158 423.08C616.678 423.72 616.051 424.2 615.278 424.52C614.531 424.813 613.718 424.96 612.838 424.96C612.331 424.96 611.664 424.773 610.838 424.4C610.038 424 609.024 423.613 607.798 423.24C606.598 422.867 605.118 422.68 603.358 422.68C602.211 422.68 601.078 422.773 599.958 422.96C598.864 423.12 597.864 423.4 596.958 423.8C596.051 424.173 595.331 424.693 594.798 425.36C594.264 426.027 593.998 426.88 593.998 427.92C593.998 428.96 594.264 429.88 594.798 430.68C595.331 431.453 596.064 432.16 596.998 432.8C597.931 433.413 599.024 434.013 600.278 434.6C601.558 435.16 602.931 435.733 604.398 436.32C606.398 437.12 608.318 438.027 610.158 439.04C612.024 440.027 613.691 441.16 615.158 442.44C616.624 443.693 617.771 445.107 618.598 446.68C619.451 448.253 619.878 450.027 619.878 452C619.878 454.56 619.238 456.733 617.958 458.52C616.704 460.307 614.958 461.747 612.718 462.84C610.504 463.933 607.931 464.72 604.998 465.2C602.091 465.707 598.984 465.96 595.678 465.96ZM649.582 466.64C645.928 466.64 642.622 466.12 639.662 465.08C636.702 464.067 634.168 462.587 632.062 460.64C629.955 458.693 628.328 456.32 627.182 453.52C626.062 450.72 625.502 447.547 625.502 444C625.502 439.947 626.102 436.24 627.302 432.88C628.528 429.52 630.302 426.627 632.622 424.2C634.942 421.773 637.768 419.907 641.102 418.6C644.435 417.267 648.222 416.6 652.462 416.6C654.542 416.6 656.475 416.813 658.262 417.24C660.048 417.667 661.608 418.253 662.942 419C664.302 419.72 665.355 420.547 666.102 421.48C666.848 422.413 667.222 423.387 667.222 424.4C667.222 425.76 666.875 426.787 666.182 427.48C665.488 428.147 664.595 428.48 663.502 428.48C662.782 428.48 662.115 428.347 661.502 428.08C660.888 427.813 660.195 427.507 659.422 427.16C658.675 426.813 657.715 426.507 656.542 426.24C655.395 425.973 653.928 425.84 652.142 425.84C650.595 425.84 649.088 426.187 647.622 426.88C646.155 427.547 644.835 428.547 643.662 429.88C642.488 431.187 641.555 432.813 640.862 434.76C640.195 436.707 639.862 438.947 639.862 441.48C639.862 443.427 640.088 445.28 640.542 447.04C641.022 448.773 641.755 450.32 642.742 451.68C643.755 453.04 645.035 454.12 646.582 454.92C648.155 455.693 650.048 456.08 652.262 456.08C653.835 456.08 655.208 455.867 656.382 455.44C657.582 454.987 658.635 454.48 659.542 453.92C660.475 453.333 661.328 452.827 662.102 452.4C662.902 451.973 663.675 451.76 664.422 451.76C666.208 451.76 667.435 452.173 668.102 453C668.768 453.8 669.102 454.92 669.102 456.36C669.102 457.773 668.608 459.107 667.622 460.36C666.662 461.613 665.288 462.707 663.502 463.64C661.742 464.573 659.675 465.307 657.302 465.84C654.955 466.373 652.382 466.64 649.582 466.64ZM682.404 465.68C680.724 465.68 679.311 465.213 678.164 464.28C677.017 463.347 676.137 461.947 675.524 460.08C675.311 459.333 675.111 458.4 674.924 457.28C674.764 456.133 674.617 454.88 674.484 453.52C674.377 452.133 674.284 450.72 674.204 449.28C674.124 447.84 674.057 446.44 674.004 445.08C673.977 443.693 673.964 442.44 673.964 441.32C673.964 437.373 674.231 433.907 674.764 430.92C675.324 427.907 676.164 425.347 677.284 423.24C678.404 421.107 679.817 419.387 681.524 418.08C683.231 416.747 685.257 415.773 687.604 415.16C689.951 414.547 692.617 414.24 695.604 414.24C698.404 414.24 701.071 414.547 703.604 415.16C706.164 415.773 708.444 416.707 710.444 417.96C712.471 419.187 714.057 420.72 715.204 422.56C716.377 424.373 716.964 426.48 716.964 428.88C716.964 431.013 716.524 432.8 715.644 434.24C714.764 435.68 713.617 436.853 712.204 437.76C710.817 438.64 709.311 439.32 707.684 439.8C706.057 440.28 704.497 440.653 703.004 440.92C702.177 441.053 701.577 441.213 701.204 441.4C700.831 441.587 700.644 441.853 700.644 442.2C700.644 442.44 700.844 442.773 701.244 443.2C701.671 443.627 702.217 444.147 702.884 444.76C703.577 445.347 704.324 446.013 705.124 446.76C705.951 447.48 706.737 448.253 707.484 449.08C708.177 449.773 708.951 450.573 709.804 451.48C710.657 452.387 711.524 453.32 712.404 454.28C713.284 455.213 714.084 456.12 714.804 457C715.551 457.853 716.151 458.613 716.604 459.28C717.057 459.92 717.284 460.36 717.284 460.6C717.284 461.533 716.991 462.32 716.404 462.96C715.844 463.6 715.111 464.08 714.204 464.4C713.297 464.72 712.324 464.88 711.284 464.88C710.297 464.88 709.271 464.64 708.204 464.16C707.137 463.707 706.044 463.053 704.924 462.2C703.804 461.347 702.684 460.333 701.564 459.16C700.471 457.987 699.377 456.707 698.284 455.32C696.764 453.507 695.364 451.907 694.084 450.52C692.831 449.133 691.764 448.04 690.884 447.24C690.004 446.44 689.391 446.04 689.044 446.04C688.804 446.04 688.604 446.147 688.444 446.36C688.311 446.573 688.217 446.933 688.164 447.44C688.111 447.92 688.071 448.587 688.044 449.44C688.044 450.267 688.044 451.32 688.044 452.6C688.044 453.053 688.044 453.613 688.044 454.28C688.071 454.92 688.084 455.6 688.084 456.32C688.111 457.04 688.111 457.747 688.084 458.44C688.084 459.133 688.071 459.76 688.044 460.32C688.044 460.853 688.017 461.253 687.964 461.52C687.697 463.067 687.044 464.147 686.004 464.76C684.991 465.373 683.791 465.68 682.404 465.68ZM692.124 437.16C692.951 437.16 693.924 437.08 695.044 436.92C696.191 436.733 697.364 436.453 698.564 436.08C699.791 435.68 700.924 435.16 701.964 434.52C703.004 433.88 703.844 433.08 704.484 432.12C705.151 431.16 705.484 430.04 705.484 428.76C705.484 427.48 705.177 426.387 704.564 425.48C703.951 424.547 703.124 423.8 702.084 423.24C701.044 422.653 699.897 422.227 698.644 421.96C697.391 421.693 696.124 421.56 694.844 421.56C693.484 421.56 692.351 421.747 691.444 422.12C690.537 422.493 689.804 423.067 689.244 423.84C688.711 424.587 688.311 425.547 688.044 426.72C687.857 427.387 687.711 428.08 687.604 428.8C687.497 429.493 687.417 430.187 687.364 430.88C687.337 431.573 687.324 432.267 687.324 432.96C687.324 434 687.457 434.827 687.724 435.44C688.017 436.053 688.511 436.493 689.204 436.76C689.924 437.027 690.897 437.16 692.124 437.16ZM741.047 466.32C737.714 466.32 734.847 465.72 732.447 464.52C730.074 463.32 728.194 461.493 726.807 459.04C725.421 456.56 724.501 453.427 724.047 449.64C723.967 448.76 723.887 447.853 723.807 446.92C723.754 445.987 723.701 445.013 723.647 444C723.621 442.987 723.594 441.947 723.567 440.88C723.567 439.787 723.567 438.667 723.567 437.52C723.567 432.88 724.047 429.04 725.007 426C725.967 422.96 727.421 420.573 729.367 418.84C731.314 417.107 733.781 415.88 736.767 415.16C739.754 414.44 743.274 414.08 747.327 414.08C749.354 414.08 751.274 414.173 753.087 414.36C754.901 414.547 756.501 414.827 757.887 415.2C759.301 415.573 760.407 416.067 761.207 416.68C762.034 417.267 762.447 417.973 762.447 418.8C762.447 419.733 762.181 420.467 761.647 421C761.114 421.533 760.447 421.893 759.647 422.08C758.794 422.213 757.701 422.28 756.367 422.28C755.034 422.28 753.594 422.253 752.047 422.2C750.501 422.147 748.954 422.133 747.407 422.16C745.381 422.16 743.674 422.32 742.287 422.64C740.901 422.933 739.794 423.44 738.967 424.16C738.167 424.853 737.581 425.787 737.207 426.96C736.861 428.133 736.687 429.587 736.687 431.32C736.687 432.253 736.807 432.973 737.047 433.48C737.314 433.96 737.887 434.293 738.767 434.48C739.674 434.667 741.101 434.76 743.047 434.76C743.607 434.76 744.274 434.76 745.047 434.76C745.821 434.733 746.607 434.707 747.407 434.68C748.234 434.653 749.007 434.64 749.727 434.64C750.474 434.613 751.087 434.6 751.567 434.6C753.567 434.6 754.981 434.92 755.807 435.56C756.634 436.173 757.047 437.067 757.047 438.24C757.047 439.973 756.527 441.16 755.487 441.8C754.447 442.44 753.127 442.76 751.527 442.76C750.887 442.76 750.181 442.76 749.407 442.76C748.661 442.76 747.887 442.76 747.087 442.76C746.314 442.76 745.554 442.76 744.807 442.76C744.087 442.76 743.434 442.76 742.847 442.76C740.821 442.76 739.301 442.84 738.287 443C737.301 443.16 736.647 443.467 736.327 443.92C736.034 444.373 735.887 445.053 735.887 445.96C735.887 447.427 735.954 448.733 736.087 449.88C736.247 451.027 736.514 452.027 736.887 452.88C737.261 453.733 737.781 454.44 738.447 455C739.114 455.56 739.967 455.973 741.007 456.24C742.047 456.507 743.301 456.64 744.767 456.64C746.527 456.64 748.261 456.6 749.967 456.52C751.701 456.413 753.274 456.307 754.687 456.2C756.127 456.093 757.261 456.04 758.087 456.04C759.501 456.04 760.527 456.36 761.167 457C761.834 457.613 762.167 458.507 762.167 459.68C762.167 460.987 761.501 462.067 760.167 462.92C758.861 463.773 757.141 464.44 755.007 464.92C752.901 465.427 750.607 465.787 748.127 466C745.674 466.213 743.314 466.32 741.047 466.32ZM786.828 466.32C783.495 466.32 780.628 465.72 778.228 464.52C775.855 463.32 773.975 461.493 772.588 459.04C771.202 456.56 770.282 453.427 769.828 449.64C769.748 448.76 769.668 447.853 769.588 446.92C769.535 445.987 769.482 445.013 769.428 444C769.402 442.987 769.375 441.947 769.348 440.88C769.348 439.787 769.348 438.667 769.348 437.52C769.348 432.88 769.828 429.04 770.788 426C771.748 422.96 773.202 420.573 775.148 418.84C777.095 417.107 779.562 415.88 782.548 415.16C785.535 414.44 789.055 414.08 793.108 414.08C795.135 414.08 797.055 414.173 798.868 414.36C800.682 414.547 802.282 414.827 803.668 415.2C805.082 415.573 806.188 416.067 806.988 416.68C807.815 417.267 808.228 417.973 808.228 418.8C808.228 419.733 807.962 420.467 807.428 421C806.895 421.533 806.228 421.893 805.428 422.08C804.575 422.213 803.482 422.28 802.148 422.28C800.815 422.28 799.375 422.253 797.828 422.2C796.282 422.147 794.735 422.133 793.188 422.16C791.162 422.16 789.455 422.32 788.068 422.64C786.682 422.933 785.575 423.44 784.748 424.16C783.948 424.853 783.362 425.787 782.988 426.96C782.642 428.133 782.468 429.587 782.468 431.32C782.468 432.253 782.588 432.973 782.828 433.48C783.095 433.96 783.668 434.293 784.548 434.48C785.455 434.667 786.882 434.76 788.828 434.76C789.388 434.76 790.055 434.76 790.828 434.76C791.602 434.733 792.388 434.707 793.188 434.68C794.015 434.653 794.788 434.64 795.508 434.64C796.255 434.613 796.868 434.6 797.348 434.6C799.348 434.6 800.762 434.92 801.588 435.56C802.415 436.173 802.828 437.067 802.828 438.24C802.828 439.973 802.308 441.16 801.268 441.8C800.228 442.44 798.908 442.76 797.308 442.76C796.668 442.76 795.962 442.76 795.188 442.76C794.442 442.76 793.668 442.76 792.868 442.76C792.095 442.76 791.335 442.76 790.588 442.76C789.868 442.76 789.215 442.76 788.628 442.76C786.602 442.76 785.082 442.84 784.068 443C783.082 443.16 782.428 443.467 782.108 443.92C781.815 444.373 781.668 445.053 781.668 445.96C781.668 447.427 781.735 448.733 781.868 449.88C782.028 451.027 782.295 452.027 782.668 452.88C783.042 453.733 783.562 454.44 784.228 455C784.895 455.56 785.748 455.973 786.788 456.24C787.828 456.507 789.082 456.64 790.548 456.64C792.308 456.64 794.042 456.6 795.748 456.52C797.482 456.413 799.055 456.307 800.468 456.2C801.908 456.093 803.042 456.04 803.868 456.04C805.282 456.04 806.308 456.36 806.948 457C807.615 457.613 807.948 458.507 807.948 459.68C807.948 460.987 807.282 462.067 805.948 462.92C804.642 463.773 802.922 464.44 800.788 464.92C798.682 465.427 796.388 465.787 793.908 466C791.455 466.213 789.095 466.32 786.828 466.32ZM823.25 465.92C821.943 465.92 820.863 465.573 820.01 464.88C819.156 464.187 818.436 463.227 817.85 462C817.556 461.36 817.29 460.36 817.05 459C816.81 457.64 816.583 456.08 816.37 454.32C816.183 452.533 816.01 450.68 815.85 448.76C815.69 446.813 815.556 444.907 815.45 443.04C815.343 441.147 815.263 439.44 815.21 437.92C815.156 436.373 815.13 435.147 815.13 434.24C815.13 430.667 815.383 427.613 815.89 425.08C816.396 422.547 817.29 420.613 818.57 419.28C819.876 417.92 821.743 417.24 824.17 417.24C825.77 417.24 827.29 417.76 828.73 418.8C830.196 419.813 831.823 421.44 833.61 423.68C835.423 425.893 837.636 428.8 840.25 432.4C843.61 437.147 846.37 440.72 848.53 443.12C850.69 445.52 852.263 446.72 853.25 446.72C853.703 446.72 854.076 446.627 854.37 446.44C854.69 446.227 854.943 445.8 855.13 445.16C855.316 444.52 855.45 443.573 855.53 442.32C855.556 441.76 855.583 440.933 855.61 439.84C855.636 438.747 855.65 437.507 855.65 436.12C855.676 434.707 855.69 433.267 855.69 431.8C855.716 430.333 855.743 428.947 855.77 427.64C855.796 426.307 855.836 425.16 855.89 424.2C855.943 423.24 855.996 422.573 856.05 422.2C856.476 420.493 857.13 419.307 858.01 418.64C858.916 417.973 860.156 417.64 861.73 417.64C862.93 417.64 863.943 417.84 864.77 418.24C865.596 418.64 866.263 419.253 866.77 420.08C867.276 420.88 867.65 421.88 867.89 423.08C868.13 424.28 868.263 425.68 868.29 427.28C868.316 428.16 868.33 429.333 868.33 430.8C868.356 432.24 868.356 433.867 868.33 435.68C868.33 437.467 868.303 439.32 868.25 441.24C868.223 443.16 868.17 445.04 868.09 446.88C868.01 448.693 867.89 450.36 867.73 451.88C867.596 453.373 867.423 454.613 867.21 455.6C866.783 457.68 866.196 459.413 865.45 460.8C864.703 462.16 863.716 463.187 862.49 463.88C861.29 464.547 859.783 464.88 857.97 464.88C856.396 464.88 854.703 464.187 852.89 462.8C851.076 461.387 849.156 459.467 847.13 457.04C845.103 454.587 842.97 451.813 840.73 448.72C839.29 446.747 837.97 444.947 836.77 443.32C835.596 441.667 834.556 440.253 833.65 439.08C832.77 437.907 832.01 437.013 831.37 436.4C830.73 435.76 830.25 435.44 829.93 435.44C829.236 435.44 828.743 435.813 828.45 436.56C828.183 437.28 828.05 438.747 828.05 440.96C828.05 442.027 828.063 443.2 828.09 444.48C828.143 445.733 828.196 447.04 828.25 448.4C828.33 449.733 828.396 451.08 828.45 452.44C828.503 453.773 828.543 455.067 828.57 456.32C828.596 457.547 828.596 458.693 828.57 459.76C828.57 460.8 828.516 461.707 828.41 462.48C828.01 463.76 827.37 464.653 826.49 465.16C825.636 465.667 824.556 465.92 823.25 465.92Z" fill="#C118C1"/>
</svg>
