<?xml version="1.0" encoding="UTF-8"?>
<svg id="Layer_1" data-name="Layer 1" xmlns="http://www.w3.org/2000/svg" viewBox="0 0 786.43 772.52">
  <defs>
    <style>
      .cls-1 {
        fill: #fff;
      }
    </style>
  </defs>
  <path class="cls-1" d="m487.4,185.45h-175.83c-2.76,0-5-2.24-5-5s2.24-5,5-5h175.83c2.76,0,5,2.24,5,5s-2.24,5-5,5Z"/>
  <g>
    <path class="cls-1" d="m561.62,417.67h-108.69c-.18-.21-.38-.41-.6-.6l-17.21-14.4c-3-3.03-4.16-7.4-3.07-11.51l6.39-14.36h80.14c11.39,0,20.65-9.26,20.65-20.65v-128.55c0-2.76-2.24-5-5-5s-5,2.24-5,5v102.81H252.8v-91.65c0-2.77-2.24-5-5-5s-5,2.23-5,5v117.39c0,11.39,9.26,20.65,20.65,20.65h89.03l6.39,14.36c1.1,4.11-.06,8.48-3.06,11.51l-17.22,14.4c-.22.19-.42.39-.6.6h-115.63c-2.76,0-5,2.24-5,5s2.24,5,5,5h339.26c2.76,0,5-2.24,5-5s-2.24-5-5-5Zm-298.17-50.87c-5.88,0-10.65-4.78-10.65-10.65v-15.74h276.43v15.74c0,5.87-4.78,10.65-10.65,10.65h-255.13Zm90.01,50.87l8.93-7.47c.1-.08.19-.17.29-.26,5.81-5.7,7.99-14.09,5.7-21.89-.06-.22-.14-.42-.23-.63l-4.72-10.62h64.06l-4.72,10.62c-.09.21-.17.41-.23.63-2.29,7.8-.11,16.19,5.7,21.89.1.09.19.18.3.26l8.92,7.47h-84Z"/>
    <path class="cls-1" d="m391.11,346.85c-3.4,0-6.16,2.76-6.16,6.17s2.76,6.16,6.16,6.16,6.16-2.76,6.16-6.16-2.76-6.17-6.16-6.17Z"/>
  </g>
  <g>
    <path class="cls-1" d="m534.01,185.53c-4.9,76.32-68.7,136.09-145.25,136.09s-145.57-65.29-145.57-145.56c0-18.23,3.31-35.95,9.85-52.73l9.07,4.29c-5.92,15.43-8.92,31.7-8.92,48.44,0,74.75,60.82,135.56,135.57,135.56s130.71-55.66,135.27-126.73c.18-2.75,2.57-4.84,5.31-4.67,2.76.18,4.85,2.56,4.67,5.31Z"/>
    <path class="cls-1" d="m512.24,176.06c0,68.09-55.39,123.48-123.48,123.48s-123.49-55.39-123.49-123.48c0-16.79,3.43-28.56,9.42-42.47l9.04,4.28c-5.5,12.82-8.46,23.15-8.46,38.19,0,62.58,50.91,113.48,113.49,113.48s113.48-50.9,113.48-113.48c0-15.95-3.24-31.35-9.62-45.78-1.12-2.53.02-5.48,2.55-6.6,2.53-1.11,5.48.03,6.59,2.55,6.96,15.71,10.48,32.48,10.48,49.83Z"/>
    <path class="cls-1" d="m472.28,233.56c-18.73,27.89-49.96,44.54-83.52,44.54-55.45,0-100.56-45.11-100.56-100.56,0-11.85,2.04-23.45,6.07-34.48.02-.05.04-.11.07-.16l9.07,4.3c-3.46,9.72-5.21,19.91-5.21,30.34,0,49.93,40.63,90.56,90.56,90.56,30.23,0,58.35-15,75.22-40.12,1.54-2.29,4.65-2.9,6.94-1.36,2.29,1.54,2.9,4.64,1.36,6.94Z"/>
  </g>
  <path class="cls-1" d="m332.43,57.47c2.41-4.3,2.68-9.22-.09-13.31-2.7-3.98-7.31-5.42-12.46-3.26-3.33,1.39-5.47,4.1-6.75,7.48l-15.1,39.68c-.79,2.09-3.18,3.07-5.21,2.16-8.47-3.8-15.45-1.89-21.3,4.33-13.21-8.7-24.31-5.04-33.32,10.96l100.7,47.1c5.55-15.97,2.98-28.09-13.56-33.57,1.01-9.69-3.47-15.58-11.96-18.71-2.23-.81-3.18-3.45-2.02-5.53l21.07-37.34Zm-9.48-12.62c3.21-.41,6.16,1.87,6.57,5.08.41,3.21-1.87,6.16-5.08,6.57-3.22.41-6.16-1.87-6.57-5.08s1.86-6.15,5.08-6.57Z"/>
  <g>
    <path class="cls-1" d="m99.5,595.81c-1.87-1.78-2.81-4.02-2.81-6.74v-54.46c0-3.88.74-7.59,2.21-11.12s3.54-6.63,6.21-9.3c2.67-2.67,5.74-4.75,9.23-6.25,3.48-1.5,7.22-2.25,11.19-2.25,3.7,0,7.19.67,10.49,2,3.3,1.33,6.26,3.22,8.88,5.65,2.62-2.43,5.57-4.32,8.84-5.65,3.27-1.33,6.76-2,10.46-2,3.98,0,7.73.75,11.26,2.25,3.53,1.5,6.63,3.58,9.3,6.25,2.67,2.67,4.75,5.77,6.25,9.3,1.5,3.53,2.25,7.24,2.25,11.12v54.46c0,2.62-.94,4.87-2.81,6.74-.89.84-1.93,1.51-3.12,2-1.19.49-2.42.74-3.68.74-1.36,0-2.62-.25-3.79-.74-1.17-.49-2.18-1.16-3.02-2-1.92-1.82-2.88-4.07-2.88-6.74v-53.75c0-1.26-.27-2.49-.81-3.68-.54-1.19-1.25-2.23-2.14-3.12-.89-.89-1.94-1.58-3.16-2.07-1.22-.49-2.48-.74-3.79-.74-2.71,0-4.94.91-6.67,2.74-1.78,1.87-2.71,4.12-2.81,6.74v53.75c0,2.67-.94,4.94-2.81,6.81-.89.89-1.92,1.58-3.09,2.07-1.17.49-2.41.74-3.72.74-2.67,0-4.94-.94-6.81-2.81-1.87-1.87-2.81-4.14-2.81-6.81v-53.47c0-1.36-.25-2.63-.74-3.83-.49-1.19-1.16-2.23-2-3.12-.89-.89-1.93-1.58-3.12-2.07-1.19-.49-2.47-.74-3.82-.74-2.71,0-5.01.94-6.88,2.81-.89.89-1.59,1.93-2.1,3.12-.52,1.19-.77,2.42-.77,3.68v53.75c0,2.71-.94,4.96-2.81,6.74-.89.84-1.93,1.51-3.12,2s-2.42.74-3.68.74c-2.62,0-4.89-.91-6.81-2.74Z"/>
    <path class="cls-1" d="m233.53,597.67c-1.17-.49-2.18-1.16-3.02-2-1.87-1.78-2.81-4.02-2.81-6.74v-23.51c-5.05-1.64-9.46-4.29-13.23-7.96-3.77-3.67-6.54-8.03-8.32-13.09-.89-2.53-1.45-5.68-1.68-9.47v-20c0-1.22.26-2.4.77-3.54.51-1.15,1.22-2.14,2.1-2.98.84-.84,1.84-1.5,2.98-1.96,1.15-.47,2.35-.7,3.61-.7,2.62,0,4.82.89,6.6,2.67.84.84,1.48,1.82,1.93,2.95.44,1.12.67,2.32.67,3.58v20.35c0,3.18,1.1,6.06,3.3,8.63,1.78,2.1,3.93,3.58,6.46,4.42,1.17.38,2.5.61,4,.7h.63c1.82,0,3.59-.34,5.3-1.02,1.71-.68,3.19-1.65,4.46-2.91,1.31-1.26,2.33-2.74,3.05-4.42.72-1.68,1.11-3.46,1.16-5.33v-20.42c0-1.26.25-2.46.74-3.58s1.18-2.11,2.07-2.95c.84-.84,1.84-1.5,2.98-1.96,1.15-.47,2.37-.7,3.68-.7,2.62,0,4.82.89,6.6,2.67.84.84,1.48,1.82,1.93,2.95.44,1.12.67,2.32.67,3.58v18.88c0,3.84-.57,7.47-1.72,10.91-1.15,3.44-2.77,6.59-4.88,9.44-2.11,2.81-4.61,5.22-7.51,7.23-2.9,2.01-6.08,3.51-9.54,4.49v23.09c0,2.67-.91,4.91-2.74,6.74-.84.84-1.84,1.51-2.98,2-1.15.49-2.35.74-3.61.74s-2.48-.25-3.65-.74Z"/>
    <path class="cls-1" d="m317.67,595.67c-1.68-1.78-2.53-3.88-2.53-6.32v-74.17c0-1.26.23-2.47.7-3.61.47-1.15,1.12-2.14,1.96-2.98,1.82-1.82,4.05-2.74,6.67-2.74h41.19c2.57,0,4.77.91,6.6,2.74.79.84,1.43,1.84,1.9,2.98.47,1.15.7,2.35.7,3.61s-.23,2.48-.7,3.65c-.47,1.17-1.1,2.18-1.9,3.02-1.82,1.82-4.02,2.74-6.6,2.74h-31.86v17.61h23.86c2.57,0,4.77.87,6.6,2.6,1.82,1.82,2.74,4.02,2.74,6.6s-.91,4.73-2.74,6.46c-1.78,1.68-3.98,2.53-6.6,2.53h-23.86v19.58h31.86c2.57,0,4.77.91,6.6,2.74.79.84,1.43,1.85,1.9,3.02.47,1.17.7,2.39.7,3.65,0,2.67-.87,4.87-2.6,6.6-1.82,1.73-4.02,2.6-6.6,2.6h-41.89c-2.53-.23-4.56-1.19-6.11-2.88Z"/>
    <path class="cls-1" d="m386.06,597.96c-1.19-.49-2.23-1.18-3.12-2.07-.94-.89-1.65-1.93-2.14-3.12-.49-1.19-.74-2.44-.74-3.75,0-1.82.72-3.81,2.18-5.96l21.4-30.17-21.47-31.23c-.7-.98-1.24-2.05-1.61-3.19-.38-1.15-.56-2.26-.56-3.33,0-1.22.25-2.39.74-3.51.49-1.12,1.18-2.1,2.07-2.95.89-.89,1.91-1.58,3.05-2.07,1.15-.49,2.33-.74,3.54-.74,1.36.05,2.62.34,3.79.88,1.17.54,2.15,1.35,2.95,2.42l18.95,27.65,19.02-27.65c.79-1.08,1.78-1.89,2.95-2.46,1.17-.56,2.41-.84,3.72-.84s2.47.25,3.61.74c1.15.49,2.16,1.18,3.05,2.07.84.84,1.5,1.83,1.96,2.95.47,1.12.7,2.29.7,3.51,0,2.39-.7,4.56-2.11,6.53l-21.54,31.23,21.47,30.17c1.4,1.96,2.11,4.12,2.11,6.46,0,1.22-.26,2.39-.77,3.51-.52,1.12-1.22,2.11-2.11,2.95-1.92,1.83-4.23,2.74-6.95,2.74-1.22,0-2.38-.28-3.47-.84-1.1-.56-2.02-1.36-2.77-2.39l-18.88-26.53-18.81,26.53c-1.54,2.15-3.72,3.23-6.53,3.23-1.26,0-2.49-.25-3.68-.74Z"/>
    <path class="cls-1" d="m483.71,596.73c-1.68-1.68-2.53-3.86-2.53-6.53v-65.75h-17.82c-2.57,0-4.77-.91-6.6-2.74-1.78-1.78-2.67-3.98-2.67-6.6,0-1.26.23-2.46.7-3.58.47-1.12,1.12-2.11,1.96-2.95,1.83-1.82,4.02-2.74,6.6-2.74h53.61c1.26,0,2.47.25,3.61.74,1.15.49,2.14,1.16,2.98,2,.84.89,1.51,1.91,2,3.05.49,1.15.74,2.35.74,3.61s-.25,2.46-.74,3.58-1.16,2.11-2,2.95c-.84.84-1.84,1.5-2.98,1.96-1.15.47-2.35.7-3.61.7h-17.47v65.75c0,1.26-.25,2.46-.74,3.58-.49,1.12-1.16,2.1-2,2.95-.89.84-1.91,1.5-3.05,1.96-1.15.47-2.35.7-3.61.7-2.57,0-4.7-.89-6.39-2.67Z"/>
    <path class="cls-1" d="m539.57,596.03c-.84-.84-1.51-1.82-2-2.95s-.74-2.32-.74-3.58v-74.32c0-1.26.25-2.47.74-3.61.49-1.15,1.16-2.14,2-2.98,1.83-1.82,4.02-2.74,6.6-2.74h26.32c4.77,0,9.3.89,13.58,2.67,4.28,1.78,8.01,4.26,11.19,7.44,3.27,3.28,5.79,7.04,7.54,11.3,1.75,4.26,2.63,8.96,2.63,14.11,0,6.36-1.61,12.26-4.84,17.68-3.23,5.38-7.51,9.52-12.84,12.42l10.67,11.23c1.78,1.92,2.67,4.12,2.67,6.6,0,1.22-.25,2.4-.74,3.54-.49,1.15-1.18,2.17-2.07,3.05-1.87,1.87-4.07,2.81-6.6,2.81s-4.68-.91-6.32-2.74l-19.3-20h-12.56v13.54c0,1.26-.25,2.46-.74,3.58s-1.16,2.11-2,2.95c-1.78,1.78-3.98,2.67-6.6,2.67s-4.82-.89-6.6-2.67Zm33.19-38.74c2.1,0,4.14-.43,6.1-1.3,1.96-.87,3.67-2.05,5.12-3.54,1.5-1.54,2.67-3.26,3.51-5.16s1.26-3.87,1.26-5.93-.43-4.33-1.3-6.53c-.87-2.2-2.02-4.02-3.47-5.47-1.5-1.5-3.23-2.67-5.19-3.51-1.96-.84-3.98-1.26-6.03-1.26h-17.26v32.7h17.26Z"/>
    <path class="cls-1" d="m623.43,596.52c-1.87-1.78-2.81-4.02-2.81-6.74v-47.23c0-5.29.76-10.17,2.28-14.67,1.52-4.49,3.73-8.37,6.63-11.65,2.95-3.32,6.53-5.88,10.74-7.68,4.21-1.8,8.94-2.7,14.18-2.7s10.07.88,14.35,2.63c4.28,1.75,7.94,4.29,10.98,7.61,2.99,3.28,5.29,7.26,6.88,11.96,1.59,4.7,2.39,9.93,2.39,15.68v46.04c0,2.62-.94,4.87-2.81,6.74-.89.84-1.93,1.51-3.12,2-1.19.49-2.42.74-3.68.74-1.36,0-2.62-.25-3.79-.74-1.17-.49-2.17-1.16-3.02-2-1.92-1.82-2.88-4.07-2.88-6.74v-14.67h-29.89v14.67c0,2.71-.94,4.96-2.81,6.74-.89.84-1.93,1.51-3.12,2s-2.42.74-3.68.74c-2.62,0-4.89-.91-6.81-2.74Zm46.32-40.56v-12.21c0-5.99-1.26-10.61-3.79-13.86-2.53-3.25-6.22-4.88-11.09-4.88s-8.64,1.51-11.19,4.53c-2.55,3.02-3.82,7.78-3.82,14.28v12.14h29.89Z"/>
  </g>
  <g>
    <path class="cls-1" d="m170.93,696.51c-1.2-1.13-1.8-2.63-1.8-4.51s.59-3.17,1.76-4.06c1.17-.89,2.84-1.34,5.01-1.34h16.26c.47-.03.97-.19,1.49-.48s1.01-.69,1.45-1.19c1.05-1.2,1.58-2.65,1.58-4.35s-.56-3.09-1.67-4.35c-.44-.5-.93-.88-1.47-1.14-.54-.26-1.05-.4-1.52-.4h-6.86c-2.43,0-4.74-.39-6.92-1.19-2.18-.79-4.08-1.92-5.69-3.38-1.64-1.49-2.92-3.24-3.85-5.25-.92-2.01-1.38-4.21-1.38-6.62,0-5.13,1.74-9.43,5.23-12.92,1.64-1.64,3.54-2.91,5.71-3.82,2.17-.91,4.47-1.36,6.9-1.36h14.46c2.14,0,3.82.49,5.03,1.47,1.22.98,1.82,2.38,1.82,4.2,0,1.99-.6,3.5-1.8,4.53-1.2,1.03-2.89,1.54-5.05,1.54h-16.26c-.44,0-.9.11-1.38.33-.48.22-.94.53-1.38.94-.47.47-.85,1.1-1.14,1.89-.29.79-.44,1.61-.44,2.46,0,1.52.51,2.86,1.54,4,.41.47.86.84,1.34,1.12.48.28.93.43,1.34.46h7.12c2.46,0,4.79.41,6.99,1.23s4.12,1.98,5.76,3.47c1.67,1.52,2.97,3.32,3.89,5.4s1.38,4.32,1.38,6.72-.45,4.7-1.34,6.88c-.89,2.18-2.15,4.11-3.76,5.78-1.61,1.7-3.48,3.04-5.6,4.02-2.12.98-4.39,1.52-6.79,1.6h-14.99c-2.11,0-3.76-.56-4.97-1.69Z"/>
    <path class="cls-1" d="m256.53,697.08c-2.62-1.07-4.92-2.59-6.88-4.55-2.02-2.02-3.59-4.41-4.7-7.16-1.11-2.75-1.67-5.76-1.67-9.01v-13.97c0-3.25.56-6.25,1.67-9.01,1.11-2.75,2.68-5.14,4.7-7.16,1.96-1.96,4.26-3.48,6.88-4.55,2.62-1.07,5.41-1.61,8.37-1.61,4.28,0,8.09,1.01,11.43,3.03,2.52,1.52,4.82,3.78,6.9,6.77.82,1.2,1.23,2.49,1.23,3.87,0,1.55-.59,2.88-1.76,4-1.2,1.14-2.65,1.71-4.35,1.71-1.85,0-3.19-.69-4.04-2.07-.7-1.08-1.28-1.92-1.74-2.5-.45-.59-.99-1.08-1.6-1.49-1.47-1-3.49-1.49-6.06-1.49-2.9,0-5.19.82-6.86,2.46-1.99,1.9-2.99,4.55-2.99,7.95v14.15c0,3.4,1,6.05,2.99,7.96,1.67,1.64,3.96,2.46,6.86,2.46,2.55,0,4.58-.5,6.11-1.49.62-.41,1.16-.92,1.63-1.52.47-.6,1.03-1.43,1.67-2.48.44-.67,1.02-1.18,1.74-1.52.72-.34,1.5-.51,2.35-.51,1.7,0,3.15.56,4.35,1.67,1.14,1.14,1.71,2.48,1.71,4,0,1.23-.37,2.45-1.12,3.67-.75,1.21-1.78,2.51-3.1,3.89-2.49,2.55-5.46,4.31-8.92,5.27-1.85.56-3.98.83-6.42.83-2.96,0-5.75-.53-8.37-1.6Z"/>
    <path class="cls-1" d="m322.23,696.62c-.53-.53-.94-1.14-1.25-1.85s-.46-1.45-.46-2.24v-46.54c0-.79.15-1.54.46-2.26.31-.72.73-1.34,1.25-1.87,1.14-1.14,2.52-1.71,4.13-1.71h16.48c2.99,0,5.82.56,8.5,1.67s5.02,2.67,7.01,4.66c2.05,2.05,3.63,4.41,4.72,7.08s1.65,5.61,1.65,8.83c0,3.98-1.01,7.68-3.03,11.07-2.02,3.37-4.7,5.96-8.04,7.78l6.68,7.03c1.11,1.2,1.67,2.58,1.67,4.13,0,.76-.15,1.5-.46,2.22-.31.72-.74,1.36-1.3,1.91-1.17,1.17-2.55,1.76-4.13,1.76s-2.93-.57-3.96-1.71l-12.08-12.52h-7.87v8.48c0,.79-.15,1.54-.46,2.24s-.73,1.32-1.25,1.85c-1.11,1.11-2.49,1.67-4.13,1.67s-3.02-.56-4.13-1.67Zm20.79-24.26c1.32,0,2.59-.27,3.82-.81,1.23-.54,2.3-1.28,3.21-2.22.94-.97,1.67-2.04,2.2-3.23.53-1.19.79-2.43.79-3.71s-.27-2.71-.81-4.09c-.54-1.38-1.27-2.52-2.18-3.43-.94-.94-2.02-1.67-3.25-2.2s-2.49-.79-3.78-.79h-10.81v20.48h10.81Z"/>
    <path class="cls-1" d="m402.01,696.4c-1.05-1.11-1.58-2.43-1.58-3.96v-46.45c0-.79.15-1.54.44-2.26.29-.72.7-1.34,1.23-1.87,1.14-1.14,2.53-1.71,4.17-1.71h25.8c1.61,0,2.99.57,4.13,1.71.5.53.89,1.15,1.19,1.87.29.72.44,1.47.44,2.26s-.15,1.55-.44,2.29-.69,1.36-1.19,1.89c-1.14,1.14-2.52,1.71-4.13,1.71h-19.95v11.03h14.94c1.61,0,2.99.54,4.13,1.63,1.14,1.14,1.71,2.52,1.71,4.13s-.57,2.96-1.71,4.04c-1.11,1.05-2.49,1.58-4.13,1.58h-14.94v12.26h19.95c1.61,0,2.99.57,4.13,1.71.5.53.89,1.16,1.19,1.89s.44,1.49.44,2.29c0,1.67-.54,3.05-1.63,4.13-1.14,1.08-2.52,1.63-4.13,1.63h-26.24c-1.58-.15-2.86-.75-3.82-1.8Z"/>
    <path class="cls-1" d="m474.09,696.4c-1.05-1.11-1.58-2.43-1.58-3.96v-46.45c0-.79.15-1.54.44-2.26.29-.72.7-1.34,1.23-1.87,1.14-1.14,2.54-1.71,4.18-1.71h25.79c1.61,0,2.99.57,4.13,1.71.5.53.89,1.15,1.19,1.87.29.72.44,1.47.44,2.26s-.15,1.55-.44,2.29-.69,1.36-1.19,1.89c-1.14,1.14-2.52,1.71-4.13,1.71h-19.95v11.03h14.94c1.61,0,2.99.54,4.13,1.63,1.14,1.14,1.71,2.52,1.71,4.13s-.57,2.96-1.71,4.04c-1.11,1.05-2.49,1.58-4.13,1.58h-14.94v12.26h19.95c1.61,0,2.99.57,4.13,1.71.5.53.89,1.16,1.19,1.89s.44,1.49.44,2.29c0,1.67-.54,3.05-1.63,4.13-1.14,1.08-2.52,1.63-4.13,1.63h-26.23c-1.58-.15-2.86-.75-3.82-1.8Z"/>
    <path class="cls-1" d="m548.27,698.18c-.75-.31-1.38-.73-1.91-1.25-1.2-1.14-1.8-2.55-1.8-4.22v-29.57c0-3.31.48-6.37,1.43-9.19s2.34-5.24,4.15-7.29c1.85-2.08,4.09-3.68,6.72-4.81,2.64-1.13,5.6-1.69,8.88-1.69s6.31.55,9.01,1.65c2.7,1.1,5,2.69,6.9,4.77,1.88,2.05,3.3,4.55,4.29,7.49.98,2.94,1.47,6.22,1.47,9.82v28.83c0,1.7-.59,3.11-1.76,4.22-.56.53-1.21.95-1.96,1.25-.75.31-1.52.46-2.31.46-1.64,0-3.06-.57-4.26-1.71-1.17-1.11-1.76-2.52-1.76-4.22v-28.83c0-3.72-.81-6.61-2.42-8.66s-3.91-3.08-6.9-3.08c-3.13,0-5.49.95-7.05,2.83-1.57,1.89-2.35,4.87-2.35,8.94v28.78c0,1.64-.59,3.05-1.76,4.22-.56.53-1.22.95-1.98,1.25-.76.31-1.54.46-2.33.46s-1.56-.15-2.31-.46Z"/>
  </g>
  <path class="cls-1" d="m369.11,145.98h-1.21c0-7.68-6.22-13.9-13.9-13.9v-1.21c7.68,0,13.9-6.22,13.9-13.9h1.21c0,7.68,6.22,13.9,13.9,13.9v1.21c-7.68,0-13.9,6.22-13.9,13.9Z"/>
  <path class="cls-1" d="m219.24,226.96h-1.21c0-6.16-4.99-11.15-11.15-11.15v-1.21c6.16,0,11.15-4.99,11.15-11.15h1.21c0,6.16,4.99,11.15,11.15,11.15v1.21c-6.16,0-11.15,4.99-11.15,11.15Z"/>
  <path class="cls-1" d="m375.24,240.86h-1.47c0-8.41-6.82-15.23-15.23-15.23v-1.47c8.41,0,15.23-6.82,15.23-15.23h1.47c0,8.41,6.82,15.23,15.23,15.23v1.47c-8.41,0-15.23,6.82-15.23,15.23Z"/>
</svg>