<?xml version="1.0" encoding="UTF-8"?>
<svg id="Layer_1" data-name="Layer 1" xmlns="http://www.w3.org/2000/svg" viewBox="0 0 421.74 443.91">
  <defs>
    <style>
      .cls-1 {
        fill: #fff;
      }
    </style>
  </defs>
  <path class="cls-1" d="m324.05,167.6H126.33c-3.11,0-5.62-2.52-5.62-5.62s2.52-5.62,5.62-5.62h197.72c3.11,0,5.62,2.52,5.62,5.62s-2.52,5.62-5.62,5.62Z"/>
  <g>
    <path class="cls-1" d="m407.51,428.73h-122.22c-.2-.24-.43-.46-.67-.67l-19.35-16.19c-3.37-3.41-4.68-8.32-3.45-12.94l7.19-16.15h90.12c12.81,0,23.22-10.41,23.22-23.22v-144.56c0-3.1-2.52-5.62-5.62-5.62s-5.62,2.52-5.62,5.62v115.61H60.24v-103.06c0-3.11-2.52-5.62-5.62-5.62s-5.62,2.51-5.62,5.62v132.01c0,12.81,10.41,23.22,23.22,23.22h100.12l7.19,16.15c1.24,4.62-.07,9.54-3.44,12.94l-19.36,16.19c-.25.21-.47.44-.67.67H26.01c-3.1,0-5.62,2.52-5.62,5.62s2.52,5.62,5.62,5.62h381.5c3.1,0,5.62-2.52,5.62-5.62s-2.52-5.62-5.62-5.62Zm-335.3-57.2c-6.61,0-11.98-5.38-11.98-11.98v-17.7h310.85v17.7c0,6.6-5.38,11.98-11.98,11.98H72.21Zm101.22,57.2l10.04-8.4c.11-.09.21-.19.33-.29,6.53-6.41,8.98-15.84,6.41-24.62-.07-.25-.16-.47-.26-.71l-5.31-11.94h72.04l-5.31,11.94c-.1.24-.19.46-.26.71-2.58,8.77-.12,18.21,6.41,24.62.11.1.21.2.34.29l10.03,8.4h-94.46Z"/>
    <path class="cls-1" d="m215.77,349.09c-3.82,0-6.93,3.1-6.93,6.94s3.1,6.93,6.93,6.93,6.93-3.1,6.93-6.93-3.1-6.94-6.93-6.94Z"/>
  </g>
  <g>
    <path class="cls-1" d="m376.46,167.69c-5.51,85.82-77.25,153.03-163.34,153.03S49.43,247.3,49.43,157.04c0-20.5,3.72-40.43,11.08-59.3l10.2,4.82c-6.66,17.35-10.03,35.65-10.03,54.47,0,84.06,68.39,152.44,152.45,152.44s146.98-62.59,152.11-142.51c.2-3.09,2.89-5.44,5.97-5.25,3.1.2,5.45,2.88,5.25,5.97Z"/>
    <path class="cls-1" d="m351.98,157.04c0,76.57-62.29,138.85-138.85,138.85s-138.87-62.29-138.87-138.85c0-18.88,3.86-32.12,10.59-47.76l10.17,4.81c-6.18,14.42-9.51,26.03-9.51,42.95,0,70.37,57.25,127.61,127.62,127.61s127.61-57.24,127.61-127.61c0-17.94-3.64-35.25-10.82-51.48-1.26-2.85.02-6.16,2.87-7.42,2.85-1.25,6.16.03,7.41,2.87,7.83,17.67,11.78,36.52,11.78,56.03Z"/>
    <path class="cls-1" d="m307.05,221.7c-21.06,31.36-56.18,50.09-93.92,50.09-62.35,0-113.08-50.73-113.08-113.08,0-13.33,2.29-26.37,6.83-38.77.02-.06.04-.12.08-.18l10.2,4.84c-3.89,10.93-5.86,22.39-5.86,34.12,0,56.15,45.69,101.84,101.84,101.84,33.99,0,65.62-16.87,84.59-45.12,1.73-2.58,5.23-3.26,7.8-1.53,2.58,1.73,3.26,5.22,1.53,7.8Z"/>
  </g>
  <path class="cls-1" d="m149.78,23.68c2.72-4.84,3.02-10.37-.1-14.96-3.03-4.48-8.21-6.09-14.01-3.66-3.75,1.57-6.15,4.61-7.59,8.41l-16.98,44.62c-.89,2.35-3.57,3.45-5.86,2.43-9.52-4.27-17.38-2.12-23.96,4.87-14.85-9.78-27.34-5.67-37.47,12.32l113.24,52.97c6.24-17.96,3.36-31.59-15.25-37.75,1.14-10.89-3.9-17.52-13.44-21.04-2.51-.92-3.58-3.88-2.27-6.22l23.69-41.99Zm-10.66-14.19c3.61-.46,6.92,2.1,7.38,5.71.46,3.61-2.1,6.92-5.71,7.38-3.63.46-6.92-2.1-7.38-5.71s2.09-6.92,5.71-7.38Z"/>
  <path class="cls-1" d="m190.59,123.21h-.48c0-8.88-7.2-16.07-16.07-16.07v-.48c8.88,0,16.07-7.2,16.07-16.07h.48c0,8.88,7.2,16.07,16.07,16.07v.48c-8.88,0-16.07,7.2-16.07,16.07Z"/>
  <path class="cls-1" d="m22.03,214.28h-.42c0-7.18-5.82-13-13-13v-.42c7.18,0,13-5.82,13-13h.42c0,7.18,5.82,13,13,13v.42c-7.18,0-13,5.82-13,13Z"/>
  <path class="cls-1" d="m197.52,229.91h-.84c0-9.68-7.85-17.53-17.53-17.53v-.84c9.68,0,17.53-7.85,17.53-17.53h.84c0,9.68,7.85,17.53,17.53,17.53v.84c-9.68,0-17.53,7.85-17.53,17.53Z"/>
</svg>